<?xml version="1.0" encoding="UTF-8"?>
<svg id="Preem_logo_RGB_copy" data-name="Preem_logo_RGB copy" xmlns="http://www.w3.org/2000/svg" viewBox="0 0 300 300">
  <defs>
    <style>
      .cls-1 {
        fill: #006341;
      }

      .cls-2 {
        fill: #ffac3a;
      }
    </style>
  </defs>
  <path class="cls-2" d="m300,25v250c0,13.81-11.19,25-25,25H25c-13.81,0-25-11.19-25-25V25C0,11.19,11.19,0,25,0h250c13.81,0,25,11.19,25,25Z"/>
  <path class="cls-1" d="m109.47,213.22c1.2,0,2.37.14,3.52.43v8.27c-.43-.06-7.17-1.86-10.89,1.86-1.77,1.78-2.92,4.93-2.92,9.79v16.47h-7.76v-35.95h7.48v5.68c1.1-2.06,3.79-6.54,10.57-6.54Zm40,18.98v2.23h-27.61c.02,1.87,1.99,9.2,10.78,9.2,6.06,0,9.12-3.2,10.09-4.01l4.09,5.85c-1.96,1.62-5.9,5.42-14.1,5.42-13.13,0-18.77-9.46-18.77-18.69,0-12.75,9.01-18.98,18.05-18.98,14.3,0,17.47,11.88,17.47,18.98Zm-8.48-3.67c-.24-2.49-1.62-8.41-9.13-8.41-3.22,0-8.65,1.15-9.92,8.41h19.05Zm47.68,3.67v2.23h-27.61c.02,1.87,1.99,9.2,10.78,9.2,5.8,0,8.99-3,10.09-4.01l4.09,5.85c-1.96,1.62-5.9,5.42-14.1,5.42-13.13,0-18.77-9.46-18.77-18.69,0-12.75,9.01-18.98,18.05-18.98,14.3,0,17.47,11.88,17.47,18.98Zm-8.48-3.67c-.24-2.49-1.62-8.41-9.13-8.41-3.22,0-8.65,1.15-9.92,8.41h19.05Zm56.1-15.31c-8.28,0-11.55,4.89-12.8,6.9-.96-2.16-3.72-6.9-11.5-6.9-7.12,0-10.19,4.19-11.29,5.97v-5.11h-7.55v35.95h7.76v-16.97c0-1.78-.45-12.51,9.2-12.51,6.95,0,7.55,5.9,7.55,8.77v20.71h7.76v-16.97c0-1.78-.47-12.51,9.27-12.51,6.93,0,7.48,5.9,7.48,8.77v20.71h7.83v-21.28c0-4.74-1.2-15.53-13.73-15.53Zm-149.33,18.84c0,16.24-12.69,18.84-16.75,18.84-7.42,0-11.05-4.31-12.44-6.04v19.56h-7.76v-50.33h7.76v5.11c1.34-1.82,5.02-5.97,12.37-5.97,12.97,0,16.82,11.65,16.82,18.84Zm-7.98,0c0-3.4-1.59-11.43-10.78-11.43s-10.78,7.93-10.78,11.43c0,9.55,7.57,11.43,10.78,11.43,9.33,0,10.78-8.03,10.78-11.43Zm69.62-86.58c.06-.15-.04-.31-.2-.33-1.69-.13-3.35-.33-4.97-.67-9.39-2.03-20.45-5.39-24.1-13.23-3.65-7.84,2.02-24,9.9-29.51,7.89-5.51,27.51-13.88,40.65-11.15,13.14,2.72,21.32,12.32,22.12,20.93.8,8.61-.82,23.87-14.33,28.46-5.16,1.75-9.93,3.12-14.42,4.04-.09.02-.16.08-.18.17-1.23,5.12-3,12.56-3.79,16.28-.03.15.08.29.23.29,9.06-.12,18.15-1.61,23.46-3.68,8.02-3.12,10.03-6.3,15.79-6.3s13.31,3.77,7.4,8.87c-5.92,5.1-23.67,12.74-38.4,14.58-14.21,1.78-29.78-.22-43.2-4.9-14.26-4.97-22.01-11.7-22.53-17.45-.52-5.75,2.22-17.09,8.21-8.21,5.95,8.81,23.06,15.44,32.64,17.05.12.02.23-.05.26-.16.39-1.22,2.6-8,5.47-15.08Zm13.47-26.24c3.54,0,6.62-.34,7.69-2.06.59-1.05.78-3.98-2.44-5.87-1.43-1.04-3.1-1.73-4.92-1.84-1.44-.13-4.18.58-5.04,2.9-.86,2.33,1.18,6.87,4.72,6.87Zm82.54,1.52c-3.61-9.01-11.9-28.24-13.01-31.27-1.5-4.08-4.62-7.29-.42-9.41,3.05-1.54,7.24-6.82,7.74-15.14.5-8.33-4.68-18.1-14.48-21.38-9.8-3.28-18.03-1.8-21.87,1.84-2.37,2.25-3.95,3.62-8.59,2.1-4.63-1.51-8.73-3.11-20.3-5.1-11.62-2-26.64-3.16-41.43-2-14.79,1.17-26.99,6.1-33.23,9.19-2.94,1.45-4.39,2.57-5.55.96-1.46-2.02-3.89-4.53-14.14-3.82-10.25.71-18.15,8.63-23.96,18.47-5.81,9.84-1.03,20.72,3.41,24.54,3.27,2.82,5.59,2.53,4.25,6.07-1.64,4.34-20.29,64.92-25.13,84.03-2.9,11.45,10.97,8.61,14.67.33,4.02-8.99,18.28-63.22,19.77-70.42,1.5-7.19,6.16-18.43,6.99-21.1.83-2.66-1.58-5.4-5.99-4.83-4.41.57-5.99-4.49-4.66-12.48,1.34-7.99,6.66-10.98,9.16-11.98,2.49-1,6.71-.09,7.8,3.93,1.12,4.13,6.44,4.4,9.33,2.23,2.93-2.19,13.14-9.15,28.95-12.81,15.81-3.66,33.28-1,43.77,0,10.48.99,25.29,5.28,29.51,7.67,2.15,1.22,3.78,1.18,5.11.67,1.21-.46,2.19-1.29,2.66-2.57.8-2.18,2.66-3.94,5.82-4.6,3.16-.67,8.65-.33,11.31,2.66,2.66,3,2.92,6.48,2.68,8.28-.23,1.72-2.59,6.26-5.84,6.2-5.82-.1-7.15,4.33-5.66,9.32,1.49,4.99,16.31,41.76,18.47,48.26,2.16,6.49,15.31,42.76,21.63,55.91,5.49,11.42,15.62,10.08,15.33,4.34-.27-5.27-20.29-58.51-24.12-68.08Zm-106.46-37.54c1.33-7.49-7.06-14.3-7.06-14.3-4.44-3.77-10.58-.25-11.92,3.3-1.33,3.55,1.57,9.54,5.5,13.75,3.93,4.22,12.12,4.88,13.48-2.75Zm35.47-1.37c2.99-2.99,1.94-10.01.09-14.57-1.03-2.55-4.19-3.25-7.24-3.3-4.6-.08-6.64,3.19-6.51,9.35.09,3.91.32,7.73,3.6,9.62,3.27,1.89,7.73,1.23,10.06-1.1Z"/>
</svg>